<svg width="111" height="111" viewBox="0 0 111 111" fill="none" xmlns="http://www.w3.org/2000/svg">
    <path d="M55.5 110C85.5995 110 110 102.129 110 92.4193C110 82.7098 85.5995 74.8386 55.5 74.8386C25.4005 74.8386 1 82.7098 1 92.4193C1 102.129 25.4005 110 55.5 110Z" stroke="#292525" stroke-miterlimit="10"/>
    <path d="M55.5 85.3872C85.5995 85.3872 110 77.516 110 67.8065C110 58.097 85.5995 50.2258 55.5 50.2258C25.4005 50.2258 1 58.097 1 67.8065C1 77.516 25.4005 85.3872 55.5 85.3872Z" stroke="#292525" stroke-miterlimit="10"/>
    <path d="M55.5 60.774C85.5995 60.774 110 52.9029 110 43.1933C110 33.4838 85.5995 25.6127 55.5 25.6127C25.4005 25.6127 1 33.4838 1 43.1933C1 52.9029 25.4005 60.774 55.5 60.774Z" stroke="#292525" stroke-miterlimit="10"/>
    <path d="M55.5 36.1613C85.5995 36.1613 110 28.2902 110 18.5807C110 8.87113 85.5995 1 55.5 1C25.4005 1 1 8.87113 1 18.5807C1 28.2902 25.4005 36.1613 55.5 36.1613Z" fill="#2B2727" stroke="#292525" stroke-miterlimit="10"/>
</svg>
