<svg width="159" height="159" viewBox="0 0 159 159" fill="none" xmlns="http://www.w3.org/2000/svg">
    <path d="M34.7309 53.9999C15.5496 73.1813 15.5495 104.28 34.7309 123.462C53.9122 142.643 85.0113 142.643 104.193 123.462C123.374 104.28 123.374 73.1813 104.193 53.9999C85.0113 34.8186 53.9122 34.8186 34.7309 53.9999Z" stroke="#2B2727" stroke-miterlimit="10"/>
    <path d="M59.1078 47.5769C44.8843 61.8004 44.8843 84.8612 59.1078 99.0847C73.3313 113.308 96.3922 113.308 110.616 99.0847C124.839 84.8612 124.839 61.8004 110.616 47.5769C96.3922 33.3534 73.3313 33.3534 59.1078 47.5769Z" stroke="#2B2727" stroke-miterlimit="10"/>
    <path d="M82.3864 41.1539C72.8176 50.7227 72.8176 66.2368 82.3864 75.8056C91.9552 85.3744 107.469 85.3744 117.038 75.8056C126.607 66.2368 126.607 50.7227 117.038 41.1539C107.469 31.585 91.9552 31.585 82.3864 41.1539Z" stroke="#2B2727" stroke-miterlimit="10"/>
    <path d="M105.468 34.7308C100.499 39.6997 100.499 47.7559 105.468 52.7248C110.437 57.6937 118.493 57.6937 123.462 52.7248C128.431 47.7559 128.431 39.6997 123.462 34.7308C118.493 29.7619 110.437 29.7619 105.468 34.7308Z" fill="#2B2727" stroke="#2B2727" stroke-miterlimit="10"/>
</svg>
