<svg width="121" height="110" viewBox="0 0 121 110" fill="none" xmlns="http://www.w3.org/2000/svg">
    <path d="M60.2908 109.144C72.9535 109.144 83.2187 84.9353 83.2187 55.0721C83.2187 25.2089 72.9535 1 60.2908 1C47.6281 1 37.3629 25.2089 37.3629 55.0721C37.3629 84.9353 47.6281 109.144 60.2908 109.144Z" stroke="#2B2727" stroke-miterlimit="10"/>
    <path d="M13.4638 82.1081C20.8996 94.9874 47.8931 93.3236 73.7554 78.392C99.6177 63.4604 114.555 40.9153 107.119 28.036C99.6836 15.1568 72.6901 16.8205 46.8278 31.7521C20.9655 46.6837 6.02795 69.2289 13.4638 82.1081Z" stroke="#2B2727" stroke-miterlimit="10"/>
    <path d="M13.464 28.0359C6.02812 40.9152 20.9657 63.4604 46.828 78.392C72.6903 93.3236 99.6837 94.9873 107.12 82.108C114.555 69.2288 99.6178 46.6836 73.7556 31.752C47.8933 16.8204 20.8998 15.1567 13.464 28.0359Z" stroke="#2B2727" stroke-miterlimit="10"/>
    <path d="M60.2909 69.0795C68.0269 69.0795 74.2982 62.8082 74.2982 55.0721C74.2982 47.3361 68.0269 41.0648 60.2909 41.0648C52.5549 41.0648 46.2836 47.3361 46.2836 55.0721C46.2836 62.8082 52.5549 69.0795 60.2909 69.0795Z" fill="#2B2727" stroke="#2B2727" stroke-miterlimit="10"/>
</svg>
