<svg width="135" height="118" viewBox="0 0 135 118" fill="none" xmlns="http://www.w3.org/2000/svg">
    <path d="M103.859 105.093C120.856 100.376 130.811 82.7728 126.093 65.7758C121.376 48.7788 103.773 38.8241 86.7759 43.5415C69.7788 48.2588 59.8242 65.8618 64.5415 82.8589C69.2589 99.8559 86.8619 109.811 103.859 105.093Z" stroke="#2B2727" stroke-miterlimit="10"/>
    <path d="M32.1969 57.1548C43.6316 53.9813 50.3286 42.1389 47.155 30.7042C43.9814 19.2695 32.139 12.5726 20.7044 15.7461C9.26965 18.9197 2.5727 30.7621 5.74628 42.1968C8.91987 53.6315 20.7622 60.3284 32.1969 57.1548Z" stroke="#2B2727" stroke-miterlimit="10"/>
    <path d="M80.7193 24.4867C86.6571 22.8387 90.1347 16.6892 88.4867 10.7514C86.8387 4.81358 80.6892 1.33598 74.7514 2.98396C68.8136 4.63194 65.336 10.7815 66.9839 16.7193C68.6319 22.6571 74.7814 26.1347 80.7193 24.4867Z" fill="#2B2727" stroke="#2B2727" stroke-miterlimit="10"/>
    <path d="M68.0721 117.144C91.8602 117.144 111.144 97.8602 111.144 74.0721C111.144 50.284 91.8602 31 68.0721 31C44.284 31 25 50.284 25 74.0721C25 97.8602 44.284 117.144 68.0721 117.144Z" stroke="#2B2727" stroke-miterlimit="10"/>
</svg>
