<svg width="664" height="664" viewBox="0 0 664 664" fill="none" xmlns="http://www.w3.org/2000/svg">

<path d="M332 663C514.806 663 663 514.806 663 332C663 149.194 514.806 1 332 1C149.194 1 1 149.194 1 332C1 514.806 149.194 663 332 663Z" stroke="black" stroke-miterlimit="10"/>

<path class="help-progress" d="M332 0.999986C514.806 0.999978 663 149.194 663 332C663 514.806 514.806 663 332 663C149.194 663 0.999994 514.806 0.999986 332C0.999978 149.194 149.194 0.999994 332 0.999986ZM332 653.07C509.322 653.07 653.07 509.322 653.07 332C653.07 154.678 509.322 10.93 332 10.93C154.678 10.93 10.93 154.678 10.93 332C10.93 509.322 154.678 653.07 332 653.07Z" fill="#2B2727"/>

</svg>
