<svg width="106" height="108" viewBox="0 0 106 108" fill="none" xmlns="http://www.w3.org/2000/svg">
<path d="M53.1815 107.131C82.0005 107.131 105.363 83.3729 105.363 54.0656C105.363 24.7583 82.0005 1 53.1815 1C24.3624 1 1 24.7583 1 54.0656C1 83.3729 24.3624 107.131 53.1815 107.131Z" stroke="#2B2727" stroke-miterlimit="10"/>
<path d="M53.6936 93.4152C75.0637 93.4152 92.3876 75.7978 92.3876 54.0656C92.3876 32.3334 75.0637 14.7159 53.6936 14.7159C32.3235 14.7159 14.9996 32.3334 14.9996 54.0656C14.9996 75.7978 32.3235 93.4152 53.6936 93.4152Z" stroke="#2B2727" stroke-miterlimit="10"/>
<path d="M53.0311 80.5379C67.4078 80.5379 79.0624 68.6859 79.0624 54.0656C79.0624 39.4453 67.4078 27.5933 53.0311 27.5933C38.6544 27.5933 26.9998 39.4453 26.9998 54.0656C26.9998 68.6859 38.6544 80.5379 53.0311 80.5379Z" stroke="#2B2727" stroke-miterlimit="10"/>
<path d="M53.5171 67.8123C60.9826 67.8123 67.0346 61.6577 67.0346 54.0657C67.0346 46.4736 60.9826 40.3191 53.5171 40.3191C46.0515 40.3191 39.9995 46.4736 39.9995 54.0657C39.9995 61.6577 46.0515 67.8123 53.5171 67.8123Z" fill="#2B2727" stroke="#2B2727" stroke-miterlimit="10"/>
</svg>
