<svg width="184" height="53" viewBox="0 0 184 53" fill="none" xmlns="http://www.w3.org/2000/svg">
<path fill-rule="evenodd" clip-rule="evenodd" d="M141.53 31.1389C141.53 28.0973 144.287 26.9948 150.622 26.9948C156.026 26.9948 159.566 27.7171 162.547 28.6676C161.802 30.9488 159.491 32.3556 156.845 33.2301C153.454 34.3326 141.53 36.842 141.53 31.1389ZM152.299 10.1519C146.225 10.1519 140.375 11.2544 134.45 13.2315L137.468 19.5428C143.468 17.7179 148.126 17.3757 151.927 17.3757C155.877 17.3757 162.994 17.8319 162.994 23.4969C159.193 22.1662 154.572 21.3678 149.579 21.3678C140.337 21.3678 132.027 23.8011 132.027 31.5191C132.027 38.2487 137.133 40.9101 145.293 40.9101C148.647 40.9101 151.74 40.5299 154.61 39.8456C158.746 38.2867 161.503 35.8154 163.441 33.04C163.888 33.154 164.187 33.4202 164.671 33.5342C164.075 35.5873 163.553 37.5263 163.031 39.6174V40.4539H171.528V25.3979C171.379 14.144 164.485 10.1519 152.299 10.1519Z" fill="#2B2727"/>
<path d="M183.9 0H175.441V40.3773H183.9V0Z" fill="#2B2727"/>
<path fill-rule="evenodd" clip-rule="evenodd" d="M119.767 10.646V27.2988C117.159 30.4164 111.01 33.42 105.309 33.42C98.3404 33.42 96.2536 30.1503 96.2536 23.839V10.646H87.7573L87.6455 27.1087C87.7573 38.0585 95.0239 40.91 102.775 40.91C105.905 40.91 108.774 40.4537 111.383 39.6173C115.519 38.0585 118.24 35.5872 120.177 32.8117C120.624 32.9258 120.923 33.1919 121.407 33.306C120.811 35.359 120.289 37.2981 119.767 39.3892V40.4157H128.226V10.646H119.767Z" fill="#2B2727"/>
<path fill-rule="evenodd" clip-rule="evenodd" d="M62.7527 33.6863C55.1881 33.6863 51.5362 31.4051 51.5362 25.55C51.5362 19.6569 55.7098 17.3757 63.2744 17.3757C70.8391 17.3757 74.4165 19.6569 74.4165 25.55C74.4165 31.4051 70.3174 33.6863 62.7527 33.6863ZM74.9382 10.6461V11.6727C75.4599 13.7638 75.9816 15.7028 76.5778 17.7559C76.1306 17.8699 75.8325 18.1361 75.3481 18.2501C73.4476 15.5127 71.2863 12.2049 67.0009 10.9123C65.0259 10.418 62.8273 10.1519 60.4423 10.1519C51.0517 10.1519 43.0771 14.182 43.0771 25.55C43.0771 36.918 51.0517 40.9101 60.4423 40.9101C62.7527 40.9101 64.9141 40.682 66.8891 40.2258C71.2863 38.9711 73.4476 35.6253 75.3853 32.8499C75.8325 32.9639 76.1306 33.2301 76.6151 33.3441C76.0188 35.3972 75.4971 37.3362 74.9754 39.4273V53.0766H83.4717V10.6461H74.9382Z" fill="#2B2727"/>
<path fill-rule="evenodd" clip-rule="evenodd" d="M20.1228 16.7293C25.4888 16.7293 29.6252 17.8699 31.0785 22.0521H8.94345C10.285 17.8699 14.3468 16.7293 20.1228 16.7293ZM19.6756 33.8764C14.0487 33.8764 9.57694 32.3176 8.64533 27.5651H40.1337C40.1337 14.0299 31.2648 10.1519 20.1973 10.1519C8.34722 10.1519 0 14.6002 0 25.55C0 36.4618 8.60807 40.9101 19.6756 40.9101C30.445 40.9101 37.6743 37.3362 39.612 29.7702H31.2275C29.1035 32.7738 25.5261 33.8764 19.6756 33.8764Z" fill="#2B2727"/>
</svg>
