<svg width="184" height="53" viewBox="0 0 184 53" fill="none" xmlns="http://www.w3.org/2000/svg">
<path fill-rule="evenodd" clip-rule="evenodd" d="M141.53 31.1394C141.53 28.0978 144.287 26.9952 150.622 26.9952C156.026 26.9952 159.566 27.7176 162.547 28.6681C161.802 30.9493 159.491 32.3561 156.845 33.2305C153.454 34.3331 141.53 36.8424 141.53 31.1394ZM152.299 10.1523C146.225 10.1523 140.375 11.2549 134.45 13.232L137.468 19.5433C143.468 17.7183 148.126 17.3762 151.927 17.3762C155.877 17.3762 162.994 17.8324 162.994 23.4974C159.193 22.1667 154.572 21.3683 149.579 21.3683C140.337 21.3683 132.027 23.8016 132.027 31.5196C132.027 38.2492 137.133 40.9106 145.293 40.9106C148.647 40.9106 151.74 40.5304 154.61 39.846C158.746 38.2872 161.503 35.8159 163.441 33.0404C163.888 33.1545 164.187 33.4206 164.671 33.5347C164.075 35.5878 163.553 37.5268 163.031 39.6179V40.4544H171.528V25.3984C171.379 14.1445 164.485 10.1523 152.299 10.1523Z" fill="white"/>
<path d="M183.9 0H175.441V40.3773H183.9V0Z" fill="white"/>
<path fill-rule="evenodd" clip-rule="evenodd" d="M119.766 10.6455V27.2983C117.158 30.4159 111.009 33.4195 105.308 33.4195C98.3394 33.4195 96.2526 30.1498 96.2526 23.8385V10.6455H87.7563L87.6445 27.1082C87.7563 38.058 95.0229 40.9095 102.774 40.9095C105.904 40.9095 108.773 40.4532 111.382 39.6168C115.518 38.058 118.239 35.5867 120.176 32.8112C120.624 32.9253 120.922 33.1914 121.406 33.3055C120.81 35.3585 120.288 37.2976 119.766 39.3887V40.4152H128.225V10.6455H119.766Z" fill="white"/>
<path fill-rule="evenodd" clip-rule="evenodd" d="M62.7537 33.6868C55.189 33.6868 51.5371 31.4056 51.5371 25.5505C51.5371 19.6574 55.7107 17.3762 63.2754 17.3762C70.8401 17.3762 74.4174 19.6574 74.4174 25.5505C74.4174 31.4056 70.3184 33.6868 62.7537 33.6868ZM74.9392 10.6466V11.6731C75.4609 13.7643 75.9826 15.7033 76.5788 17.7564C76.1316 17.8704 75.8335 18.1366 75.3491 18.2506C73.4486 15.5132 71.2872 12.2054 67.0018 10.9127C65.0268 10.4185 62.8282 10.1523 60.4433 10.1523C51.0527 10.1523 43.0781 14.1825 43.0781 25.5505C43.0781 36.9185 51.0527 40.9106 60.4433 40.9106C62.7537 40.9106 64.915 40.6825 66.89 40.2263C71.2872 38.9716 73.4486 35.6258 75.3863 32.8504C75.8335 32.9644 76.1316 33.2306 76.616 33.3446C76.0198 35.3977 75.4981 37.3367 74.9764 39.4278V53.0771H83.4727V10.6466H74.9392Z" fill="white"/>
<path fill-rule="evenodd" clip-rule="evenodd" d="M20.1228 16.7298C25.4888 16.7298 29.6252 17.8704 31.0785 22.0526H8.94345C10.285 17.8704 14.3468 16.7298 20.1228 16.7298ZM19.6756 33.8769C14.0487 33.8769 9.57694 32.3181 8.64533 27.5655H40.1337C40.1337 14.0304 31.2648 10.1523 20.1973 10.1523C8.34722 10.1523 0 14.6007 0 25.5505C0 36.4622 8.60807 40.9106 19.6756 40.9106C30.445 40.9106 37.6743 37.3367 39.612 29.7707H31.2275C29.1035 32.7743 25.5261 33.8769 19.6756 33.8769Z" fill="white"/>
</svg>
