<svg
  width="112"
  height="24"
  viewBox="0 0 112 24"
  fill="none"
  xmlns="http://www.w3.org/2000/svg"
>
                <g clip-path="url(#clip0_2876_553)">
                <path
      fill-rule="evenodd"
      clip-rule="evenodd"
      d="M62.1658 14.1008C62.1658 12.7234 63.377 12.2241 66.1594 12.2241C68.5326 12.2241 70.0875 12.5513 71.3968 12.9817C71.0695 14.0147 70.0547 14.6517 68.8927 15.0477C67.4033 15.547 62.1658 16.6833 62.1658 14.1008ZM66.8959 4.59717C64.2281 4.59717 61.6584 5.09645 59.056 5.99172L60.3818 8.84968C63.0169 8.02328 65.0628 7.86833 66.7322 7.86833C68.4671 7.86833 71.5932 8.07493 71.5932 10.6402C69.9238 10.0376 67.8943 9.67608 65.7011 9.67608C61.6421 9.67608 57.9922 10.7779 57.9922 14.2729C57.9922 17.3203 60.2345 18.5254 63.8189 18.5254C65.2919 18.5254 66.6504 18.3533 67.9107 18.0434C69.7274 17.3375 70.9386 16.2184 71.7897 14.9616C71.9861 15.0132 72.117 15.1338 72.3298 15.1854C72.0679 16.1151 71.8388 16.9932 71.6096 17.9401V18.3188H75.3413V11.501C75.2758 6.40492 72.2479 4.59717 66.8959 4.59717Z"
      fill="white"
    />
                <path d="M80.77 0H77.0547V18.2841H80.77V0Z" fill="white" />
                <path
      fill-rule="evenodd"
      clip-rule="evenodd"
      d="M52.6006 4.8208V12.3617C51.4549 13.7735 48.7544 15.1336 46.2502 15.1336C43.1895 15.1336 42.273 13.6529 42.273 10.795V4.8208H38.5413L38.4922 12.2756C38.5413 17.234 41.7329 18.5252 45.1372 18.5252C46.5121 18.5252 47.7723 18.3186 48.918 17.9399C50.7348 17.234 51.9296 16.1149 52.7807 14.8581C52.9771 14.9098 53.108 15.0303 53.3208 15.0819C53.0589 16.0116 52.8298 16.8897 52.6006 17.8366V18.3014H56.316V4.8208H52.6006Z"
      fill="white"
    />
                <path
      fill-rule="evenodd"
      clip-rule="evenodd"
      d="M27.5637 15.2543C24.2412 15.2543 22.6372 14.2213 22.6372 11.5699C22.6372 8.90133 24.4703 7.86833 27.7928 7.86833C31.1154 7.86833 32.6866 8.90133 32.6866 11.5699C32.6866 14.2213 30.8862 15.2543 27.5637 15.2543ZM32.9157 4.82098V5.28583C33.1449 6.23275 33.374 7.1108 33.6359 8.0405C33.4395 8.09215 33.3085 8.21267 33.0958 8.26432C32.2611 7.02472 31.3118 5.52687 29.4295 4.9415C28.5621 4.71768 27.5964 4.59717 26.5489 4.59717C22.4244 4.59717 18.9219 6.42213 18.9219 11.5699C18.9219 16.7177 22.4244 18.5254 26.5489 18.5254C27.5637 18.5254 28.513 18.4221 29.3804 18.2155C31.3118 17.6474 32.2611 16.1323 33.1121 14.8755C33.3085 14.9272 33.4395 15.0477 33.6523 15.0993C33.3904 16.029 33.1612 16.9071 32.9321 17.854V24.0348H36.6638V4.82098H32.9157Z"
      fill="white"
    />
                <path
      fill-rule="evenodd"
      clip-rule="evenodd"
      d="M8.83823 7.57565C11.1951 7.57565 13.0118 8.09215 13.6502 9.98598H3.9281C4.51732 8.09215 6.30133 7.57565 8.83823 7.57565ZM8.64182 15.3404C6.17039 15.3404 4.20634 14.6345 3.79716 12.4824H17.6274C17.6274 6.35327 13.732 4.59717 8.87096 4.59717C3.66623 4.59717 0 6.61151 0 11.5699C0 16.5111 3.7808 18.5254 8.64182 18.5254C13.3719 18.5254 16.5471 16.9071 17.3982 13.481H13.7156C12.7827 14.8411 11.2115 15.3404 8.64182 15.3404Z"
      fill="white"
    />
                </g>
                <defs>
                <clipPath id="clip0_2876_553">
                <rect width="112" height="24" fill="white" />
                </clipPath>
                </defs>
                </svg>
